<svg width="167" height="101" viewBox="0 0 167 101" fill="none" xmlns="http://www.w3.org/2000/svg">
<path d="M115.53 10.7719C115.855 9.16915 118.145 9.16915 118.47 10.7719L123.56 35.8899C123.859 37.3631 125.381 38.2416 126.806 37.7636L151.103 29.6128C152.654 29.0927 153.799 31.0764 152.574 32.1591L133.366 49.1263C132.239 50.1215 132.239 51.8785 133.366 52.8737L152.574 69.8409C153.799 70.9236 152.654 72.9073 151.103 72.3872L126.806 64.2364C125.381 63.7584 123.859 64.6369 123.56 66.1101L118.47 91.2281C118.145 92.8309 115.855 92.8308 115.53 91.2281L110.44 66.1101C110.141 64.6369 108.619 63.7584 107.194 64.2364L82.8965 72.3872C81.3461 72.9073 80.2008 70.9236 81.4264 69.8409L100.634 52.8737C101.761 51.8785 101.761 50.1215 100.634 49.1263L81.4264 32.1591C80.2008 31.0764 81.3461 29.0927 82.8965 29.6128L107.194 37.7636C108.619 38.2416 110.141 37.3631 110.44 35.8899L115.53 10.7719Z" fill="url(#paint0_linear_3088_10084)" stroke="#9187F2"/>
<path d="M28.5299 9.77192C28.8547 8.16915 31.1453 8.16914 31.4701 9.77192L33.5603 20.0861C33.8588 21.5592 35.3805 22.4378 36.8056 21.9597L46.783 18.6128C48.3334 18.0927 49.4787 20.0764 48.2531 21.1591L40.3658 28.1263C39.2393 29.1215 39.2393 30.8785 40.3658 31.8737L48.2531 38.8409C49.4787 39.9236 48.3334 41.9073 46.783 41.3872L36.8056 38.0402C35.3805 37.5622 33.8588 38.4408 33.5603 39.9139L31.4701 50.2281C31.1453 51.8308 28.8547 51.8309 28.5299 50.2281L26.4397 39.9139C26.1412 38.4408 24.6195 37.5622 23.1944 38.0403L13.217 41.3872C11.6666 41.9073 10.5213 39.9236 11.7469 38.8409L19.6342 31.8737C20.7607 30.8785 20.7607 29.1215 19.6342 28.1263L11.7469 21.1591C10.5213 20.0764 11.6666 18.0927 13.217 18.6128L23.1944 21.9597C24.6195 22.4378 26.1412 21.5592 26.4397 20.0861L28.5299 9.77192Z" fill="url(#paint1_linear_3088_10084)" stroke="#9187F2"/>
<path d="M51.5299 49.7719C51.8547 48.1692 54.1453 48.1691 54.4701 49.7719L55.8103 56.3851C56.1088 57.8583 57.6305 58.7368 59.0556 58.2588L65.4528 56.1128C67.0033 55.5927 68.1486 57.5764 66.923 58.6591L61.8658 63.1263C60.7393 64.1215 60.7393 65.8785 61.8658 66.8737L66.923 71.3409C68.1486 72.4236 67.0033 74.4073 65.4528 73.8872L59.0556 71.7412C57.6305 71.2632 56.1088 72.1417 55.8103 73.6149L54.4701 80.2281C54.1453 81.8308 51.8547 81.8309 51.5299 80.2281L50.1897 73.6149C49.8912 72.1417 48.3695 71.2632 46.9444 71.7412L40.5472 73.8872C38.9967 74.4073 37.8514 72.4236 39.077 71.3409L44.1342 66.8737C45.2607 65.8785 45.2607 64.1215 44.1342 63.1263L39.077 58.6591C37.8514 57.5764 38.9967 55.5927 40.5472 56.1128L46.9444 58.2588C48.3695 58.7368 49.8912 57.8583 50.1897 56.3851L51.5299 49.7719Z" fill="url(#paint2_linear_3088_10084)" stroke="#9187F2"/>
<defs>
<linearGradient id="paint0_linear_3088_10084" x1="117" y1="1" x2="117" y2="101" gradientUnits="userSpaceOnUse">
<stop stop-color="white"/>
<stop offset="1" stop-color="#9187F2"/>
</linearGradient>
<linearGradient id="paint1_linear_3088_10084" x1="30" y1="0" x2="30" y2="60" gradientUnits="userSpaceOnUse">
<stop stop-color="white"/>
<stop offset="1" stop-color="#9187F2"/>
</linearGradient>
<linearGradient id="paint2_linear_3088_10084" x1="53" y1="40" x2="53" y2="90" gradientUnits="userSpaceOnUse">
<stop stop-color="white"/>
<stop offset="1" stop-color="#9187F2"/>
</linearGradient>
</defs>
</svg>
