<svg width="100" height="100" viewBox="0 0 100 100" fill="none" xmlns="http://www.w3.org/2000/svg">
<path d="M51.4609 8.47885L57.937 36.2913C58.2188 37.5016 59.3469 38.3212 60.5851 38.2152L89.0375 35.7798C90.6195 35.6444 91.2999 37.7383 89.9404 38.5587L65.4904 53.3123C64.4264 53.9544 63.9956 55.2805 64.479 56.4253L75.5874 82.7326C76.2051 84.1954 74.4239 85.4895 73.2236 84.45L51.6366 65.7559C50.6972 64.9423 49.3028 64.9423 48.3634 65.7559L26.7764 84.45C25.5761 85.4895 23.7949 84.1954 24.4126 82.7326L35.521 56.4253C36.0044 55.2805 35.5736 53.9544 34.5096 53.3123L10.0596 38.5587C8.70012 37.7383 9.38047 35.6444 10.9625 35.7798L39.4149 38.2152C40.6531 38.3212 41.7812 37.5016 42.063 36.2913L48.5391 8.47885C48.8992 6.93241 51.1008 6.93241 51.4609 8.47885Z" fill="url(#paint0_linear_3094_2926)" stroke="#9187F2"/>
<defs>
<linearGradient id="paint0_linear_3094_2926" x1="50" y1="0" x2="50" y2="100" gradientUnits="userSpaceOnUse">
<stop stop-color="white"/>
<stop offset="1" stop-color="#9187F2"/>
</linearGradient>
</defs>
</svg>
