<svg width="90" height="69" viewBox="0 0 90 69" fill="none" xmlns="http://www.w3.org/2000/svg">
<path d="M28.5516 16.3026C28.9501 14.8226 31.0499 14.8226 31.4484 16.3026L35.5818 31.6542C35.8134 32.5145 36.4855 33.1866 37.3458 33.4182L52.6974 37.5516C54.1774 37.9501 54.1774 40.0499 52.6974 40.4484L37.3458 44.5818C36.4855 44.8134 35.8134 45.4855 35.5818 46.3458L31.4484 61.6974C31.0499 63.1774 28.9501 63.1774 28.5516 61.6974L24.4182 46.3458C24.1866 45.4855 23.5145 44.8134 22.6542 44.5818L7.30265 40.4484C5.82262 40.0499 5.82262 37.9501 7.30264 37.5516L22.6542 33.4182C23.5145 33.1866 24.1866 32.5145 24.4182 31.6542L28.5516 16.3026Z" fill="url(#paint0_linear_3088_10081)" stroke="#9187F2"/>
<path d="M63.5516 7.30265C63.9501 5.82262 66.0499 5.82263 66.4484 7.30264L69.5211 18.7148C69.7528 19.5752 70.4248 20.2472 71.2852 20.4789L82.6973 23.5516C84.1774 23.9501 84.1774 26.0499 82.6974 26.4484L71.2852 29.5211C70.4248 29.7528 69.7528 30.4248 69.5211 31.2852L66.4484 42.6973C66.0499 44.1774 63.9501 44.1774 63.5516 42.6974L60.4789 31.2852C60.2472 30.4248 59.5752 29.7528 58.7148 29.5211L47.3027 26.4484C45.8226 26.0499 45.8226 23.9501 47.3026 23.5516L58.7148 20.4789C59.5752 20.2472 60.2472 19.5752 60.4789 18.7148L63.5516 7.30265Z" fill="url(#paint1_linear_3088_10081)" stroke="#9187F2"/>
<defs>
<linearGradient id="paint0_linear_3088_10081" x1="30" y1="9" x2="30" y2="69" gradientUnits="userSpaceOnUse">
<stop stop-color="white"/>
<stop offset="1" stop-color="#9187F2"/>
</linearGradient>
<linearGradient id="paint1_linear_3088_10081" x1="65" y1="0" x2="65" y2="50" gradientUnits="userSpaceOnUse">
<stop stop-color="white"/>
<stop offset="1" stop-color="#9187F2"/>
</linearGradient>
</defs>
</svg>
