<svg width="150" height="150" viewBox="0 0 150 150" fill="none" xmlns="http://www.w3.org/2000/svg">
<path d="M24 48C24 34.7452 34.7452 24 48 24H102C115.255 24 126 34.7452 126 48V102C126 115.255 115.255 126 102 126H48C34.7452 126 24 115.255 24 102V48Z" fill="#3C2BE8"/>
<path d="M84.6875 54.3242C85.9766 54.3242 87.0312 54.5352 87.8516 54.957C88.6953 55.3555 89.3633 55.9414 89.8555 56.7148C90.3477 57.4648 90.6875 58.3672 90.875 59.4219C91.0625 60.4766 91.1562 61.6367 91.1562 62.9023C91.1562 63.957 91.0977 65.082 90.9805 66.2773C90.8867 67.4492 90.7812 68.668 90.6641 69.9336C90.3594 72.8398 90.1016 75.6992 89.8906 78.5117C89.7031 81.3242 89.6094 84.0781 89.6094 86.7734C89.6094 89.7969 89.75 92.5273 90.0312 94.9648C90.3359 97.3789 90.8164 99.5703 91.4727 101.539C92.1523 103.508 93.043 105.266 94.1445 106.812C95.2461 108.383 96.6055 109.801 98.2227 111.066C98.4805 111.277 98.6797 111.441 98.8203 111.559C98.9609 111.699 99.0312 111.863 99.0312 112.051C99.0312 112.355 98.8203 112.508 98.3984 112.508C98.1641 112.508 97.9062 112.461 97.625 112.367C96.0078 111.758 94.332 110.867 92.5977 109.695C90.8633 108.523 89.2812 107 87.8516 105.125C86.4219 103.25 85.2383 100.965 84.3008 98.2695C83.3867 95.5977 82.9297 92.4336 82.9297 88.7773C82.9297 86.293 83.0117 83.832 83.1758 81.3945C83.3398 78.957 83.5156 76.6602 83.7031 74.5039C83.9141 72.3242 84.1016 70.332 84.2656 68.5273C84.4297 66.6992 84.5117 65.1406 84.5117 63.8516C84.5117 63.1484 84.4531 62.5977 84.3359 62.1992C84.2188 61.8008 84.0664 61.5078 83.8789 61.3203C83.7148 61.1094 83.5156 60.9805 83.2812 60.9336C83.0469 60.8867 82.8242 60.8633 82.6133 60.8633C82.332 60.8633 82.0508 60.957 81.7695 61.1445C81.4883 61.332 81.207 61.6836 80.9258 62.1992C80.6445 62.7148 80.3633 63.418 80.082 64.3086C79.8242 65.1758 79.5781 66.3125 79.3438 67.7188C79.1797 68.5859 78.9922 69.6289 78.7812 70.8477C78.5938 72.0664 78.3711 73.3672 78.1133 74.75C77.8789 76.1328 77.6328 77.5508 77.375 79.0039C77.1406 80.4336 76.9062 81.793 76.6719 83.082C76.4609 84.3711 76.25 85.543 76.0391 86.5977C75.8516 87.6289 75.6875 88.4375 75.5469 89.0234C74.9609 91.5078 74.1992 93.3242 73.2617 94.4727C72.3477 95.6211 71.1875 96.1953 69.7812 96.1953C68.75 96.1953 67.9297 95.9609 67.3203 95.4922C66.7344 95.0234 66.2891 94.4375 65.9844 93.7344C65.6797 93.0312 65.4922 92.2695 65.4219 91.4492C65.3516 90.6055 65.3164 89.8203 65.3164 89.0938C65.3164 84.3828 65.375 79.7656 65.4922 75.2422C65.6094 70.7188 65.668 66.1836 65.668 61.6367C65.668 59.9492 65.6211 58.4375 65.5273 57.1016C65.4336 55.7656 65.2344 54.6406 64.9297 53.7266C64.625 52.7891 64.2031 52.0742 63.6641 51.582C63.125 51.0664 62.4219 50.8086 61.5547 50.8086C60.7344 50.8086 60.0195 51.2891 59.4102 52.25C58.8242 53.1875 58.332 54.4766 57.9336 56.1172C57.5352 57.7578 57.2305 59.6914 57.0195 61.918C56.8086 64.1445 56.668 66.5352 56.5977 69.0898C56.5508 70.8477 56.5039 72.6406 56.457 74.4688C56.4336 76.2969 56.3867 78.0781 56.3164 79.8125C56.2461 81.5234 56.1523 83.1523 56.0352 84.6992C55.918 86.2227 55.7773 87.5938 55.6133 88.8125C55.4492 90.9219 55.25 92.668 55.0156 94.0508C54.8047 95.4102 54.6172 96.4414 54.4531 97.1445C54.3125 97.7539 54.0664 98.1758 53.7148 98.4102C53.3633 98.6445 52.9648 98.7969 52.5195 98.8672C52.0977 98.9375 51.6641 98.9727 51.2188 98.9727C50.7734 98.9727 50.3867 99.043 50.0586 99.1836C49.6602 99.3477 49.25 99.4297 48.8281 99.4297C48.4297 99.4297 48.0898 99.3359 47.8086 99.1484C47.5508 98.9609 47.4219 98.6328 47.4219 98.1641C47.4219 98 47.4336 97.8594 47.457 97.7422C47.5039 97.4609 47.5977 96.8516 47.7383 95.9141C47.9023 94.9766 48.0781 93.8516 48.2656 92.5391C48.4766 91.2031 48.6875 89.7383 48.8984 88.1445C49.1094 86.5508 49.2969 84.9453 49.4609 83.3281C49.625 81.7109 49.7656 80.1406 49.8828 78.6172C50 77.0938 50.0586 75.7461 50.0586 74.5742C50.0586 72.6289 49.9883 70.918 49.8477 69.4414C49.7305 67.9414 49.5664 66.6172 49.3555 65.4688C49.1445 64.2969 48.8867 63.2539 48.582 62.3398C48.3008 61.4023 47.9961 60.5234 47.668 59.7031C47.3398 58.8594 47 58.0273 46.6484 57.207C46.3203 56.3633 45.9922 55.4492 45.6641 54.4648C45.2422 53.1992 44.9375 51.957 44.75 50.7383C44.5859 49.4961 44.5039 48.3008 44.5039 47.1523C44.5039 45.9805 44.5742 44.8906 44.7148 43.8828C44.8789 42.8516 45.0781 41.9609 45.3125 41.2109C45.5703 40.4609 45.8398 39.875 46.1211 39.4531C46.4023 39.0078 46.6719 38.7852 46.9297 38.7852C47.2344 38.7852 47.4688 38.9727 47.6328 39.3477C47.7969 39.7227 47.8789 40.1797 47.8789 40.7188C47.8789 40.9062 47.8672 41.1289 47.8438 41.3867C47.8438 41.6445 47.8438 41.9492 47.8438 42.3008C47.8438 42.8867 47.8789 43.6016 47.9492 44.4453C48.0195 45.2656 48.1836 46.2266 48.4414 47.3281C48.6992 48.4062 49.0742 49.6133 49.5664 50.9492C50.0586 52.2852 50.7266 53.75 51.5703 55.3438C51.9453 56.0469 52.2852 56.75 52.5898 57.4531C52.8945 58.1328 53.1758 58.8125 53.4336 59.4922C53.8555 57.3594 54.4062 55.5195 55.0859 53.9727C55.7891 52.4258 56.5391 51.1133 57.3359 50.0352C58.1328 48.957 58.9531 48.0781 59.7969 47.3984C60.6406 46.7188 61.4492 46.2031 62.2227 45.8516C62.9961 45.4766 63.6875 45.2305 64.2969 45.1133C64.9062 44.9727 65.3867 44.9023 65.7383 44.9023C66.7227 44.9023 67.5664 45.1719 68.2695 45.7109C68.9727 46.25 69.5703 47 70.0625 47.9609C70.5781 48.8984 70.9883 50.0117 71.293 51.3008C71.6211 52.5664 71.8672 53.9375 72.0312 55.4141C72.2188 56.8672 72.3359 58.3906 72.3828 59.9844C72.4531 61.5547 72.4883 63.1133 72.4883 64.6602C72.4883 67.8711 72.4297 70.6484 72.3125 72.9922C72.2188 75.3125 72.1016 77.3398 71.9609 79.0742C71.8438 80.7852 71.7266 82.2617 71.6094 83.5039C71.5156 84.7227 71.4688 85.8359 71.4688 86.8438C71.4688 87.1016 71.5156 87.3008 71.6094 87.4414C71.7266 87.582 71.8555 87.6523 71.9961 87.6523C72.2305 87.6523 72.4297 87.5469 72.5938 87.3359C72.7578 87.125 72.9219 86.668 73.0859 85.9648C73.2734 85.2383 73.4727 84.1836 73.6836 82.8008C73.918 81.418 74.2227 79.5547 74.5977 77.2109C74.9023 75.2656 75.1836 73.3555 75.4414 71.4805C75.6992 69.6055 75.9805 67.8242 76.2852 66.1367C76.6133 64.4258 76.9883 62.8555 77.4102 61.4258C77.832 59.9727 78.3594 58.7305 78.9922 57.6992C79.6484 56.6445 80.4336 55.8242 81.3477 55.2383C82.2617 54.6289 83.375 54.3242 84.6875 54.3242Z" fill="white"/>
<circle cx="101" cy="100" r="5" fill="white"/>
</svg>
