<svg width="385" height="150" viewBox="0 0 385 150" fill="none" xmlns="http://www.w3.org/2000/svg">
<path d="M24 48C24 34.7452 34.7452 24 48 24H102C115.255 24 126 34.7452 126 48V102C126 115.255 115.255 126 102 126H48C34.7452 126 24 115.255 24 102V48Z" fill="#3C2BE8"/>
<path d="M84.6875 54.3242C85.9766 54.3242 87.0312 54.5352 87.8516 54.957C88.6953 55.3555 89.3633 55.9414 89.8555 56.7148C90.3477 57.4648 90.6875 58.3672 90.875 59.4219C91.0625 60.4766 91.1562 61.6367 91.1562 62.9023C91.1562 63.957 91.0977 65.082 90.9805 66.2773C90.8867 67.4492 90.7812 68.668 90.6641 69.9336C90.3594 72.8398 90.1016 75.6992 89.8906 78.5117C89.7031 81.3242 89.6094 84.0781 89.6094 86.7734C89.6094 89.7969 89.75 92.5273 90.0312 94.9648C90.3359 97.3789 90.8164 99.5703 91.4727 101.539C92.1523 103.508 93.043 105.266 94.1445 106.812C95.2461 108.383 96.6055 109.801 98.2227 111.066C98.4805 111.277 98.6797 111.441 98.8203 111.559C98.9609 111.699 99.0312 111.863 99.0312 112.051C99.0312 112.355 98.8203 112.508 98.3984 112.508C98.1641 112.508 97.9062 112.461 97.625 112.367C96.0078 111.758 94.332 110.867 92.5977 109.695C90.8633 108.523 89.2812 107 87.8516 105.125C86.4219 103.25 85.2383 100.965 84.3008 98.2695C83.3867 95.5977 82.9297 92.4336 82.9297 88.7773C82.9297 86.293 83.0117 83.832 83.1758 81.3945C83.3398 78.957 83.5156 76.6602 83.7031 74.5039C83.9141 72.3242 84.1016 70.332 84.2656 68.5273C84.4297 66.6992 84.5117 65.1406 84.5117 63.8516C84.5117 63.1484 84.4531 62.5977 84.3359 62.1992C84.2188 61.8008 84.0664 61.5078 83.8789 61.3203C83.7148 61.1094 83.5156 60.9805 83.2812 60.9336C83.0469 60.8867 82.8242 60.8633 82.6133 60.8633C82.332 60.8633 82.0508 60.957 81.7695 61.1445C81.4883 61.332 81.207 61.6836 80.9258 62.1992C80.6445 62.7148 80.3633 63.418 80.082 64.3086C79.8242 65.1758 79.5781 66.3125 79.3438 67.7188C79.1797 68.5859 78.9922 69.6289 78.7812 70.8477C78.5938 72.0664 78.3711 73.3672 78.1133 74.75C77.8789 76.1328 77.6328 77.5508 77.375 79.0039C77.1406 80.4336 76.9062 81.793 76.6719 83.082C76.4609 84.3711 76.25 85.543 76.0391 86.5977C75.8516 87.6289 75.6875 88.4375 75.5469 89.0234C74.9609 91.5078 74.1992 93.3242 73.2617 94.4727C72.3477 95.6211 71.1875 96.1953 69.7812 96.1953C68.75 96.1953 67.9297 95.9609 67.3203 95.4922C66.7344 95.0234 66.2891 94.4375 65.9844 93.7344C65.6797 93.0312 65.4922 92.2695 65.4219 91.4492C65.3516 90.6055 65.3164 89.8203 65.3164 89.0938C65.3164 84.3828 65.375 79.7656 65.4922 75.2422C65.6094 70.7188 65.668 66.1836 65.668 61.6367C65.668 59.9492 65.6211 58.4375 65.5273 57.1016C65.4336 55.7656 65.2344 54.6406 64.9297 53.7266C64.625 52.7891 64.2031 52.0742 63.6641 51.582C63.125 51.0664 62.4219 50.8086 61.5547 50.8086C60.7344 50.8086 60.0195 51.2891 59.4102 52.25C58.8242 53.1875 58.332 54.4766 57.9336 56.1172C57.5352 57.7578 57.2305 59.6914 57.0195 61.918C56.8086 64.1445 56.668 66.5352 56.5977 69.0898C56.5508 70.8477 56.5039 72.6406 56.457 74.4688C56.4336 76.2969 56.3867 78.0781 56.3164 79.8125C56.2461 81.5234 56.1523 83.1523 56.0352 84.6992C55.918 86.2227 55.7773 87.5938 55.6133 88.8125C55.4492 90.9219 55.25 92.668 55.0156 94.0508C54.8047 95.4102 54.6172 96.4414 54.4531 97.1445C54.3125 97.7539 54.0664 98.1758 53.7148 98.4102C53.3633 98.6445 52.9648 98.7969 52.5195 98.8672C52.0977 98.9375 51.6641 98.9727 51.2188 98.9727C50.7734 98.9727 50.3867 99.043 50.0586 99.1836C49.6602 99.3477 49.25 99.4297 48.8281 99.4297C48.4297 99.4297 48.0898 99.3359 47.8086 99.1484C47.5508 98.9609 47.4219 98.6328 47.4219 98.1641C47.4219 98 47.4336 97.8594 47.457 97.7422C47.5039 97.4609 47.5977 96.8516 47.7383 95.9141C47.9023 94.9766 48.0781 93.8516 48.2656 92.5391C48.4766 91.2031 48.6875 89.7383 48.8984 88.1445C49.1094 86.5508 49.2969 84.9453 49.4609 83.3281C49.625 81.7109 49.7656 80.1406 49.8828 78.6172C50 77.0938 50.0586 75.7461 50.0586 74.5742C50.0586 72.6289 49.9883 70.918 49.8477 69.4414C49.7305 67.9414 49.5664 66.6172 49.3555 65.4688C49.1445 64.2969 48.8867 63.2539 48.582 62.3398C48.3008 61.4023 47.9961 60.5234 47.668 59.7031C47.3398 58.8594 47 58.0273 46.6484 57.207C46.3203 56.3633 45.9922 55.4492 45.6641 54.4648C45.2422 53.1992 44.9375 51.957 44.75 50.7383C44.5859 49.4961 44.5039 48.3008 44.5039 47.1523C44.5039 45.9805 44.5742 44.8906 44.7148 43.8828C44.8789 42.8516 45.0781 41.9609 45.3125 41.2109C45.5703 40.4609 45.8398 39.875 46.1211 39.4531C46.4023 39.0078 46.6719 38.7852 46.9297 38.7852C47.2344 38.7852 47.4688 38.9727 47.6328 39.3477C47.7969 39.7227 47.8789 40.1797 47.8789 40.7188C47.8789 40.9062 47.8672 41.1289 47.8438 41.3867C47.8438 41.6445 47.8438 41.9492 47.8438 42.3008C47.8438 42.8867 47.8789 43.6016 47.9492 44.4453C48.0195 45.2656 48.1836 46.2266 48.4414 47.3281C48.6992 48.4062 49.0742 49.6133 49.5664 50.9492C50.0586 52.2852 50.7266 53.75 51.5703 55.3438C51.9453 56.0469 52.2852 56.75 52.5898 57.4531C52.8945 58.1328 53.1758 58.8125 53.4336 59.4922C53.8555 57.3594 54.4062 55.5195 55.0859 53.9727C55.7891 52.4258 56.5391 51.1133 57.3359 50.0352C58.1328 48.957 58.9531 48.0781 59.7969 47.3984C60.6406 46.7188 61.4492 46.2031 62.2227 45.8516C62.9961 45.4766 63.6875 45.2305 64.2969 45.1133C64.9062 44.9727 65.3867 44.9023 65.7383 44.9023C66.7227 44.9023 67.5664 45.1719 68.2695 45.7109C68.9727 46.25 69.5703 47 70.0625 47.9609C70.5781 48.8984 70.9883 50.0117 71.293 51.3008C71.6211 52.5664 71.8672 53.9375 72.0312 55.4141C72.2188 56.8672 72.3359 58.3906 72.3828 59.9844C72.4531 61.5547 72.4883 63.1133 72.4883 64.6602C72.4883 67.8711 72.4297 70.6484 72.3125 72.9922C72.2188 75.3125 72.1016 77.3398 71.9609 79.0742C71.8438 80.7852 71.7266 82.2617 71.6094 83.5039C71.5156 84.7227 71.4688 85.8359 71.4688 86.8438C71.4688 87.1016 71.5156 87.3008 71.6094 87.4414C71.7266 87.582 71.8555 87.6523 71.9961 87.6523C72.2305 87.6523 72.4297 87.5469 72.5938 87.3359C72.7578 87.125 72.9219 86.668 73.0859 85.9648C73.2734 85.2383 73.4727 84.1836 73.6836 82.8008C73.918 81.418 74.2227 79.5547 74.5977 77.2109C74.9023 75.2656 75.1836 73.3555 75.4414 71.4805C75.6992 69.6055 75.9805 67.8242 76.2852 66.1367C76.6133 64.4258 76.9883 62.8555 77.4102 61.4258C77.832 59.9727 78.3594 58.7305 78.9922 57.6992C79.6484 56.6445 80.4336 55.8242 81.3477 55.2383C82.2617 54.6289 83.375 54.3242 84.6875 54.3242Z" fill="white"/>
<circle cx="101" cy="100" r="5" fill="white"/>
<path d="M154.558 91V58.072H161.614L169.102 79.432C169.294 80.008 169.486 80.648 169.678 81.352C169.902 82.024 170.094 82.664 170.254 83.272C170.446 83.88 170.59 84.408 170.686 84.856H171.022C171.118 84.376 171.246 83.832 171.406 83.224C171.566 82.584 171.742 81.928 171.934 81.256C172.126 80.584 172.302 79.976 172.462 79.432L179.95 58.072H186.958V91H182.398V71.704C182.398 70.712 182.414 69.64 182.446 68.488C182.478 67.304 182.51 66.232 182.542 65.272C182.574 64.28 182.59 63.576 182.59 63.16H182.206C182.11 63.576 181.95 64.168 181.726 64.936C181.502 65.672 181.262 66.456 181.006 67.288C180.782 68.088 180.574 68.808 180.382 69.448L172.654 91H168.718L160.99 69.448C160.798 68.904 160.59 68.28 160.366 67.576C160.174 66.84 159.966 66.088 159.742 65.32C159.55 64.552 159.358 63.832 159.166 63.16H158.83C158.862 63.864 158.878 64.744 158.878 65.8C158.91 66.824 158.926 67.864 158.926 68.92C158.958 69.944 158.974 70.872 158.974 71.704V91H154.558ZM200.718 91.576C199.79 91.576 198.862 91.464 197.934 91.24C197.006 91.016 196.142 90.648 195.342 90.136C194.542 89.624 193.902 88.92 193.422 88.024C192.942 87.096 192.702 85.944 192.702 84.568C192.702 82.84 193.118 81.416 193.95 80.296C194.782 79.176 195.934 78.312 197.406 77.704C198.91 77.064 200.686 76.632 202.734 76.408C204.782 76.152 207.006 76.024 209.406 76.024V73.144C209.406 72.216 209.246 71.416 208.926 70.744C208.606 70.072 208.03 69.56 207.198 69.208C206.398 68.824 205.246 68.632 203.742 68.632C202.302 68.632 201.15 68.824 200.286 69.208C199.454 69.56 198.862 70.024 198.51 70.6C198.19 71.176 198.03 71.816 198.03 72.52V73.24H193.95C193.918 73.08 193.902 72.92 193.902 72.76C193.902 72.6 193.902 72.408 193.902 72.184C193.902 70.648 194.318 69.368 195.15 68.344C196.014 67.288 197.214 66.504 198.75 65.992C200.286 65.448 202.046 65.176 204.03 65.176C206.142 65.176 207.902 65.48 209.31 66.088C210.75 66.696 211.822 67.56 212.526 68.68C213.262 69.8 213.63 71.144 213.63 72.712V86.392C213.63 87 213.774 87.432 214.062 87.688C214.35 87.912 214.702 88.024 215.118 88.024H216.99V90.808C216.542 91 216.046 91.16 215.502 91.288C214.958 91.448 214.334 91.528 213.63 91.528C212.798 91.528 212.11 91.352 211.566 91C211.022 90.68 210.606 90.232 210.318 89.656C210.03 89.048 209.838 88.376 209.742 87.64H209.406C208.83 88.44 208.094 89.144 207.198 89.752C206.334 90.328 205.358 90.776 204.27 91.096C203.182 91.416 201.998 91.576 200.718 91.576ZM201.774 88.024C202.798 88.024 203.758 87.864 204.654 87.544C205.582 87.224 206.398 86.776 207.102 86.2C207.806 85.592 208.366 84.872 208.782 84.04C209.198 83.208 209.406 82.296 209.406 81.304V79.192C206.814 79.192 204.606 79.336 202.782 79.624C200.958 79.912 199.55 80.424 198.558 81.16C197.598 81.896 197.118 82.936 197.118 84.28C197.118 85.144 197.31 85.848 197.694 86.392C198.078 86.936 198.622 87.352 199.326 87.64C200.03 87.896 200.846 88.024 201.774 88.024ZM229.131 91.576C227.051 91.576 225.259 91.112 223.755 90.184C222.283 89.256 221.131 87.816 220.299 85.864C219.499 83.88 219.099 81.32 219.099 78.184C219.099 75.208 219.515 72.76 220.347 70.84C221.179 68.92 222.331 67.496 223.803 66.568C225.275 65.64 226.987 65.176 228.939 65.176C230.059 65.176 231.099 65.304 232.059 65.56C233.019 65.816 233.867 66.216 234.603 66.76C235.371 67.304 236.043 68.024 236.619 68.92H236.907V56.296H241.131V91H237.723L237.339 87.4H237.003C236.139 88.808 235.019 89.864 233.643 90.568C232.267 91.24 230.763 91.576 229.131 91.576ZM230.139 87.88C231.739 87.88 233.035 87.528 234.027 86.824C235.019 86.12 235.739 85.096 236.187 83.752C236.667 82.408 236.907 80.744 236.907 78.76V77.992C236.907 76.264 236.731 74.808 236.379 73.624C236.027 72.44 235.547 71.496 234.939 70.792C234.331 70.088 233.627 69.592 232.827 69.304C232.027 69.016 231.179 68.872 230.283 68.872C228.715 68.872 227.435 69.192 226.443 69.832C225.451 70.44 224.715 71.416 224.235 72.76C223.755 74.072 223.515 75.784 223.515 77.896V78.904C223.515 81.08 223.771 82.84 224.283 84.184C224.795 85.496 225.531 86.44 226.491 87.016C227.483 87.592 228.699 87.88 230.139 87.88ZM247.773 61V56.296H251.997V61H247.773ZM247.773 91V65.752H251.997V91H247.773ZM258.554 91V65.752H261.962L262.346 69.544H262.682C263.354 68.52 264.106 67.688 264.938 67.048C265.802 66.408 266.746 65.944 267.77 65.656C268.826 65.336 269.946 65.176 271.13 65.176C272.73 65.176 274.122 65.448 275.306 65.992C276.522 66.536 277.466 67.416 278.138 68.632C278.842 69.848 279.194 71.496 279.194 73.576V91H274.97V74.152C274.97 73.096 274.826 72.232 274.538 71.56C274.282 70.888 273.914 70.36 273.434 69.976C272.986 69.592 272.426 69.32 271.754 69.16C271.114 69 270.394 68.92 269.594 68.92C268.41 68.92 267.29 69.208 266.234 69.784C265.178 70.36 264.33 71.192 263.69 72.28C263.082 73.368 262.778 74.664 262.778 76.168V91H258.554ZM289.873 99.736C288.657 99.736 287.537 99.48 286.513 98.968C285.489 98.488 284.673 97.784 284.065 96.856C283.457 95.928 283.153 94.824 283.153 93.544C283.153 92.136 283.537 90.968 284.305 90.04C285.105 89.112 286.049 88.424 287.137 87.976C286.337 87.592 285.713 87.064 285.265 86.392C284.817 85.688 284.593 84.92 284.593 84.088C284.593 82.968 284.993 82.024 285.793 81.256C286.625 80.488 287.633 79.976 288.817 79.72C287.729 79.016 286.865 78.12 286.225 77.032C285.617 75.912 285.313 74.68 285.313 73.336C285.313 71.736 285.681 70.328 286.417 69.112C287.185 67.896 288.337 66.936 289.873 66.232C291.441 65.528 293.345 65.176 295.585 65.176C296.609 65.176 297.569 65.256 298.465 65.416C299.361 65.544 300.161 65.768 300.865 66.088C301.985 65.576 302.817 64.92 303.361 64.12C303.937 63.32 304.289 62.504 304.417 61.672H308.593C308.593 62.632 308.369 63.544 307.921 64.408C307.505 65.24 306.929 65.944 306.193 66.52C305.457 67.064 304.561 67.432 303.505 67.624C304.305 68.392 304.897 69.256 305.281 70.216C305.697 71.176 305.905 72.216 305.905 73.336C305.905 74.936 305.521 76.36 304.753 77.608C304.017 78.824 302.897 79.784 301.393 80.488C299.889 81.192 298.001 81.544 295.729 81.544H291.793C290.929 81.544 290.225 81.72 289.681 82.072C289.137 82.392 288.865 82.92 288.865 83.656C288.865 84.296 289.137 84.824 289.681 85.24C290.225 85.624 290.929 85.816 291.793 85.816H302.065C303.921 85.816 305.441 86.44 306.625 87.688C307.809 88.904 308.401 90.472 308.401 92.392C308.401 93.768 308.049 95 307.345 96.088C306.673 97.208 305.713 98.088 304.465 98.728C303.249 99.4 301.825 99.736 300.193 99.736H289.873ZM291.073 96.52H300.145C300.881 96.52 301.553 96.36 302.161 96.04C302.769 95.752 303.249 95.336 303.601 94.792C303.953 94.248 304.129 93.656 304.129 93.016C304.129 91.928 303.809 91.064 303.169 90.424C302.529 89.784 301.729 89.464 300.769 89.464H291.073C290.049 89.464 289.185 89.816 288.481 90.52C287.777 91.192 287.425 92.024 287.425 93.016C287.425 94.072 287.777 94.92 288.481 95.56C289.185 96.2 290.049 96.52 291.073 96.52ZM295.633 78.376C297.681 78.376 299.201 77.928 300.193 77.032C301.185 76.136 301.681 74.904 301.681 73.336C301.681 71.8 301.185 70.584 300.193 69.688C299.201 68.792 297.681 68.344 295.633 68.344C293.585 68.344 292.049 68.792 291.025 69.688C290.033 70.584 289.537 71.8 289.537 73.336C289.537 74.328 289.761 75.208 290.209 75.976C290.657 76.744 291.329 77.336 292.225 77.752C293.121 78.168 294.257 78.376 295.633 78.376ZM312.273 91V56.296H316.497V77.992L327.201 65.752H332.193L323.553 75.544L332.673 91H327.825L320.817 78.664L316.497 83.032V91H312.273ZM344.753 91.576C342.321 91.576 340.369 90.952 338.897 89.704C337.425 88.456 336.689 86.28 336.689 83.176V65.752H340.913V82.6C340.913 83.656 341.041 84.52 341.297 85.192C341.553 85.864 341.921 86.392 342.401 86.776C342.881 87.16 343.441 87.432 344.081 87.592C344.753 87.752 345.473 87.832 346.241 87.832C347.457 87.832 348.577 87.544 349.601 86.968C350.625 86.392 351.457 85.56 352.097 84.472C352.769 83.352 353.105 82.056 353.105 80.584V65.752H357.329V91H353.921L353.537 87.208H353.201C352.529 88.232 351.761 89.064 350.897 89.704C350.065 90.344 349.121 90.808 348.065 91.096C347.041 91.416 345.937 91.576 344.753 91.576Z" fill="#383838"/>
</svg>
